<svg xmlns="http://www.w3.org/2000/svg" width="47.384" height="47.378" viewBox="0 0 47.384 47.378">
  <path id="Path_311" data-name="Path 311" d="M164.488,82.409a6.422,6.422,0,0,1,12.672-.59l1.386,6.743a9.35,9.35,0,0,0,8.217,7.523,6.409,6.409,0,0,1,.589,12.654l-6.743,1.387a9.352,9.352,0,0,0-7.524,8.234,6.411,6.411,0,0,1-12.654.59l-1.386-6.743a9.351,9.351,0,0,0-8.217-7.523,6.409,6.409,0,0,1-.589-12.654l6.743-1.387a9.332,9.332,0,0,0,7.506-8.234Z" transform="translate(-145.104 -76.696)" fill="#75797b" fill-rule="evenodd" opacity="0.2"/>
</svg>
