<svg xmlns="http://www.w3.org/2000/svg" width="950" height="949.884" viewBox="0 0 950 949.884">
  <path id="Path_312" data-name="Path 312" d="M706.47,191.237C700.2,136.321,658.849,90.442,604.289,79.322c-69.162-14.247-137.625,30.934-151.885,100.1l-27.794,135.2c-16.688,82.023-81.681,141.451-164.746,150.83-54.9,6.266-100.783,47.62-112.247,102.18-13.9,68.819,31.277,137.626,100.438,151.529l135.186,27.807c82.024,16.687,141.451,81.668,150.843,165.077,5.909,54.916,47.265,100.795,101.824,111.915,69.161,14.247,137.637-30.933,151.884-100.1l27.8-135.2c16.687-82.011,81.68-141.439,164.747-150.831,55.258-6.253,101.125-47.608,112.257-102.18,13.891-68.806-31.29-137.625-100.451-151.528L856.957,356.314C774.932,339.64,715.849,274.646,706.47,191.237Z" transform="translate(-145.104 -76.696)" fill="#a10b62" fill-rule="evenodd"/>
</svg>
